<svg width="13" height="13" viewBox="0 0 13 13" fill="none" xmlns="http://www.w3.org/2000/svg">
<path d="M12.4594 8.34006C11.8941 10.988 9.3156 12.8723 6.63791 12.8723C5.88419 12.8723 5.66601 12.4657 5.66601 11.9797C5.66601 11.6822 5.66601 11.2855 5.66601 10.7896C5.66601 9.59956 5.66601 8.21113 5.66601 7.71526C5.66601 6.9913 6.11229 6.66402 6.64783 6.66402C7.24287 6.66402 7.60981 7.00121 7.59989 7.71526C7.62965 8.40948 7.62965 9.69873 7.62965 10.8392C8.22469 10.6905 8.81973 10.3929 9.21642 9.98634C10.109 9.30204 10.704 8.11196 10.6842 6.87229C10.6743 6.12849 10.5057 5.3351 10.0495 4.73014C9.01808 3.35163 8.22469 2.95493 6.63791 2.90535C5.44783 2.85576 4.29742 3.44088 3.56353 4.33345C2.67097 5.53345 2.52221 6.63427 2.77014 7.81444C2.98832 8.80617 3.56353 9.59956 4.35692 10.1946C5.05113 10.6905 4.95196 11.1863 4.65444 11.583C4.0594 12.4756 3.26601 11.8806 2.77014 11.4343C1.67923 10.5417 0.985019 9.25245 0.786672 7.86402C0.489151 5.58303 1.18337 3.79791 2.77014 2.40948C3.16684 2.01278 3.6627 1.71526 4.15857 1.46733C4.95196 1.12022 5.74535 0.921875 6.63791 0.921875C8.9189 0.971462 10.3073 1.9632 11.3586 3.20287C12.5883 4.83923 12.8858 6.52518 12.4594 8.35989V8.34006Z" fill="#868686"/>
</svg>
